<?xml version="1.0" encoding="UTF-8"?>
<svg xmlns="http://www.w3.org/2000/svg" xmlns:xlink="http://www.w3.org/1999/xlink" width="283.5pt" height="283.499996pt" viewBox="0 0 283.5 283.499996" version="1.2">
<defs>
<clipPath id="clip1">
  <path d="M 7 7.6875 L 283 7.6875 L 283 275.4375 L 7 275.4375 Z M 7 7.6875 "/>
</clipPath>
</defs>
<g id="surface1">
<g clip-path="url(#clip1)" clip-rule="nonzero">
<path style=" stroke:none;fill-rule:nonzero;fill:rgb(14.898682%,76.858521%,13.328552%);fill-opacity:1;" d="M 141.910156 7.6875 C 67.957031 7.6875 7.789062 67.742188 7.789062 141.5625 C 7.789062 215.382812 67.957031 275.4375 141.910156 275.4375 C 215.867188 275.4375 276.035156 215.382812 276.035156 141.5625 C 276.035156 126.488281 273.402344 112.03125 268.777344 98.496094 L 247.0625 120.175781 C 248.46875 127.082031 249.207031 134.238281 249.207031 141.5625 C 249.207031 200.613281 201.070312 248.664062 141.910156 248.664062 C 82.75 248.664062 34.613281 200.613281 34.613281 141.5625 C 34.613281 82.511719 82.75 34.460938 141.910156 34.460938 C 163.8125 34.460938 184.183594 41.074219 201.191406 52.375 L 220.394531 33.207031 C 198.289062 17.222656 171.214844 7.6875 141.910156 7.6875 Z M 266.550781 24.996094 L 128.5 162.792969 L 84.332031 118.710938 L 65.367188 137.640625 L 128.5 200.65625 L 285.515625 43.929688 Z M 266.550781 24.996094 "/>
</g>
</g>
</svg>
