<?xml version="1.0" encoding="UTF-8"?>
<svg xmlns="http://www.w3.org/2000/svg" xmlns:xlink="http://www.w3.org/1999/xlink" width="375pt" height="374.999991pt" viewBox="0 0 375 374.999991" version="1.2">
<g id="surface1">
<path style=" stroke:none;fill-rule:nonzero;fill:rgb(100%,100%,100%);fill-opacity:1;" d="M 187.5 0 C 83.949219 0 0 83.949219 0 187.5 C 0 291.050781 83.949219 375 187.5 375 C 291.050781 375 375 291.050781 375 187.5 C 375 83.949219 291.050781 0 187.5 0 Z M 187.5 342.449219 C 101.925781 342.449219 32.550781 273.074219 32.550781 187.5 C 32.550781 101.925781 101.925781 32.550781 187.5 32.550781 C 273.074219 32.550781 342.449219 101.925781 342.449219 187.5 C 342.449219 273.074219 273.074219 342.449219 187.5 342.449219 Z M 187.5 342.449219 "/>
<path style=" stroke:none;fill-rule:nonzero;fill:rgb(100%,100%,100%);fill-opacity:1;" d="M 203.871094 187.5 L 250.195312 141.171875 C 255.574219 135.796875 256.265625 127.773438 251.746094 123.253906 C 247.226562 118.734375 239.203125 119.429688 233.828125 124.804688 L 187.503906 171.128906 L 141.175781 124.804688 C 135.800781 119.429688 127.777344 118.734375 123.257812 123.253906 C 118.738281 127.773438 119.433594 135.796875 124.808594 141.171875 L 171.132812 187.496094 L 124.808594 233.824219 C 119.429688 239.199219 118.738281 247.222656 123.257812 251.742188 C 127.777344 256.261719 135.800781 255.566406 141.175781 250.191406 L 187.5 203.867188 L 233.828125 250.191406 C 239.203125 255.570312 247.226562 256.261719 251.746094 251.742188 C 256.265625 247.222656 255.570312 239.203125 250.195312 233.824219 Z M 203.871094 187.5 "/>
</g>
</svg>
